<svg width="22" height="22" viewBox="0 0 22 22" fill="none" xmlns="http://www.w3.org/2000/svg">
<path d="M11 13.8947C13.6086 13.8947 15.6986 12.3432 15.6986 10.4211L15.7143 3.47368C15.7143 1.55158 13.6086 0 11 0C8.39143 0 6.28571 1.55158 6.28571 3.47368V10.4211C6.28571 12.3432 8.39143 13.8947 11 13.8947ZM19.3286 10.4211C19.3286 13.8947 15.3371 16.3263 11 16.3263C6.66286 16.3263 2.67143 13.8947 2.67143 10.4211H0C0 14.3695 4.27429 17.6347 9.42857 18.2021V22H12.5714V18.2021C17.7257 17.6463 22 14.3811 22 10.4211H19.3286Z" fill="#D9AD4C"/>
</svg>
