<svg width="35" height="35" viewBox="0 0 35 35" fill="none" xmlns="http://www.w3.org/2000/svg">
<g clip-path="url(#clip0_234_1212)">
<path d="M21.875 17.5C25.0979 17.5 27.7083 14.8896 27.7083 11.6667C27.7083 8.44376 25.0979 5.83334 21.875 5.83334C18.6521 5.83334 16.0416 8.44376 16.0416 11.6667C16.0416 14.8896 18.6521 17.5 21.875 17.5ZM8.74998 14.5833V10.2083H5.83331V14.5833H1.45831V17.5H5.83331V21.875H8.74998V17.5H13.125V14.5833H8.74998ZM21.875 20.4167C17.9812 20.4167 10.2083 22.3708 10.2083 26.25V29.1667H33.5416V26.25C33.5416 22.3708 25.7687 20.4167 21.875 20.4167Z" fill="#771F98"/>
</g>
<defs>
<clipPath id="clip0_234_1212">
<rect width="35" height="35" fill="white"/>
</clipPath>
</defs>
</svg>
